<svg xmlns="http://www.w3.org/2000/svg" xmlns:xlink="http://www.w3.org/1999/xlink" id="Layer_1" x="0" y="0" version="1.1" viewBox="0 0 792 612" xml:space="preserve" style="enable-background:new 0 0 792 612"><style type="text/css">.st0,.st1{display:none;fill:#de5926}.st1{fill:#cde3a8}.st2{fill:#43b653}.st3{fill:#f3c218}.st4{fill:#db3335}.st5{fill:#577ec0}.st6{fill:#bebdbf}.st7{fill:#d6e5bd}.st8{fill:#39803e}.st9{fill:#1c7322}.st10{fill:#9c7d00}.st11{fill:#fff1ab}.st12{fill:#65458f}.st13{fill:#e9e7f3}.st14{fill:#7e5424}.st15{fill:#f7ebdc}.st16{fill:#ffe6e6}.st17{fill:#2568b3}.st18{fill:#ccefff}.st19{fill:#5d5d5d}.st20{fill:#2e2e2e}.st21{fill:#e5e5e5}.st22{fill:#66468f}.st23{fill:#e8e7f4}.st24{fill:#ff8700}.st25{fill:#ffefd4}</style><rect width="78.6" height="78.6" x="234.8" y="296.6" class="st0"/><rect width="41.1" height="78.6" x="750.9" y="639.3" class="st1"/><rect width="78.6" height="78.6" x="52.9" y="194.3" class="st2"/><rect width="78.6" height="78.6" x="145.2" y="194.6" class="st3"/><rect width="78.6" height="78.6" x="237.5" y="194.6" class="st4"/><rect width="78.6" height="78.6" x="329.7" y="194.6" class="st5"/><rect width="78.6" height="78.6" x="422" y="194.6" class="st6"/><g><rect width="78.6" height="78.6" x="52.9" y="392.3" class="st7"/><rect width="79.1" height="78.6" x="52.9" y="313.3" class="st8"/><rect width="39.3" height="78.6" x="52.9" y="313.3" class="st9"/></g><g><rect width="78.6" height="78.6" x="145.2" y="313.6" class="st10"/><rect width="78.6" height="78.6" x="145.2" y="392.6" class="st11"/></g><g><rect width="78.6" height="78.6" x="329.8" y="313.6" class="st12"/><rect width="78.6" height="78.6" x="329.8" y="392.6" class="st13"/></g><g><rect width="78.6" height="78.6" x="513.8" y="313.6" class="st14"/><rect width="78.6" height="78.6" x="513.8" y="392.6" class="st15"/></g><g><rect width="78.6" height="78.6" x="237.5" y="313.6" class="st4"/><rect width="78.6" height="78.6" x="237.5" y="392.6" class="st16"/></g><g><rect width="78.6" height="78.6" x="329.7" y="313.6" class="st17"/><rect width="78.4" height="78.6" x="329.9" y="392.6" class="st18"/></g><g><rect width="78.6" height="78.6" x="422" y="313.6" class="st19"/><rect width="39.3" height="78.6" x="422" y="313.6" class="st20"/><rect width="78.6" height="78.6" x="422" y="392.6" class="st21"/></g><g><rect width="78.6" height="78.6" x="606" y="313.5" class="st22"/><rect width="78.6" height="78.6" x="606" y="392.5" class="st23"/></g><g><rect width="78.6" height="78.6" x="698.3" y="313.5" class="st24"/><rect width="78.6" height="78.6" x="698.3" y="392.5" class="st25"/></g></svg>